<svg width="85" height="23" fill="none" xmlns="http://www.w3.org/2000/svg"><path d="M.52 22V1h15.84v4.11H5.11v4.26h9.9v4.11h-9.9v4.41h11.4V22H.52zM28.088.64c2.24 0 4.06.53 5.46 1.59 1.42 1.06 2.13 2.41 2.13 4.05 0 2.24-1.13 3.85-3.39 4.83 2.62.84 3.93 2.49 3.93 4.95 0 1.84-.73 3.35-2.19 4.53-1.44 1.18-3.37 1.77-5.79 1.77-2.14 0-3.94-.29-5.4-.87-1.44-.58-2.75-1.46-3.93-2.64l2.46-3.21c1.82 1.78 4.05 2.67 6.69 2.67 1.02 0 1.86-.22 2.52-.66.68-.46 1.02-1.08 1.02-1.86 0-.84-.38-1.46-1.14-1.86-.74-.4-1.75-.6-3.03-.6h-2.43V9.49h2.37c2.5 0 3.75-.81 3.75-2.43 0-.72-.31-1.29-.93-1.71-.62-.42-1.44-.63-2.46-.63-2.28 0-4.17.77-5.67 2.31l-2.43-2.94c2.2-2.3 5.02-3.45 8.46-3.45zM38.447 22l9-21.15h4.26l9 21.15h-4.83l-1.92-4.71h-8.88L43.157 22h-4.71zm8.28-8.79h5.58l-2.79-6.81-2.79 6.81zM63.947 22V1h4.98l5.52 8.88L79.968 1h4.98v21h-4.59V8.29l-5.91 8.97h-.12l-5.85-8.88V22h-4.53z" fill="#0F6CFA"/></svg>