<svg width="173" height="35" viewBox="0 0 173 35" fill="none" xmlns="http://www.w3.org/2000/svg">
<g clip-path="url(#clip0)">
<path d="M0.854492 30.4161L8.77509 28.673L6.98976 12.0314C6.98976 12.0314 6.94466 10.834 8.03966 10.834H15.2261L10.5905 28.2642L11.8058 27.9617C11.8058 27.9617 12.0914 27.9161 12.2856 27.1655C12.4798 26.4148 17.3184 10.9758 17.3184 10.9758H26.0721L20.9792 28.5578C20.9792 28.5578 20.4392 30.4224 18.5637 30.4224L0.854492 30.4161Z" fill="#30318B"/>
<path d="M23.4612 27.9005L27.3087 12.6449C27.3087 12.6449 27.6307 11.0918 28.861 11.0918H44.6721C44.6721 11.0918 46.6529 11.2437 46.2319 13.1525C45.811 15.0614 42.3017 29.022 42.3017 29.022C42.3017 29.022 42.0912 30.4144 40.6216 30.4144H25.0373C25.0373 30.4144 23.0114 30.508 23.4612 27.9005Z" fill="#30318B"/>
<path d="M30.872 24.7022L33.042 16.6086C33.042 16.6086 33.3865 15.6693 34.0318 15.6238C34.677 15.5782 38.2777 15.6238 38.2777 15.6238C38.2777 15.6238 38.9229 15.806 38.7275 16.6238C38.532 17.4415 36.5976 24.8085 36.5976 24.8085C36.5976 24.8085 36.2831 25.8844 35.4876 25.8844H31.4721C31.4721 25.8844 30.6465 25.6945 30.872 24.7781" fill="#FFFFFE"/>
<path d="M51.1619 22.2423L59.0424 11.0462H65.8079L60.8879 17.755L61.4479 30.3852L54.933 30.3042L54.9531 25.8182L51.5841 30.4169H45.1757C45.1757 30.4169 43.6385 30.2903 44.0281 28.5371C44.4178 26.784 47.823 12.3348 47.823 12.3348C47.823 12.3348 48.0486 10.9766 49.5796 10.9766H54.5597L51.1619 22.2423Z" fill="#30318B"/>
<path d="M62.1733 30.2802L67.1309 11.0918H74.5128L69.4713 30.2802H62.1733Z" fill="#30318B"/>
<path d="M77.0924 7.34874C77.0924 7.34874 85.553 6.92595 89.3041 9.59175C89.3041 9.59175 80.9638 11.617 80.6593 14.5727C80.6593 14.5727 80.2835 15.9474 83.1951 17.4423C86.1068 18.9372 87.8007 19.8676 87.8207 21.9486C87.8408 24.0296 86.0003 26.3346 84.3804 27.5055C82.7604 28.6763 80.0429 30.7409 70.9609 30.5966L77.0924 7.34874Z" fill="#E94127"/>
<path d="M103.675 7.32226C103.675 7.32226 96.4443 6.89315 87.5039 11.2286C87.5039 11.2286 82.6177 13.5627 85.1636 14.9171C87.7094 16.2715 94.2243 17.6551 94.4047 22.4449C94.4047 22.4449 94.8544 25.736 88.104 30.6068H90.4043C90.4043 30.6068 94.0852 28.2562 95.9244 24.3347C95.9244 24.3347 98.6807 19.3842 91.7235 16.2513C91.7235 16.2513 96.9643 17.1196 97.1434 21.8082C97.1434 21.8082 97.7335 24.8233 92.3036 30.6056H97.7047L103.675 7.4691" fill="#30328B"/>
<path d="M75.7417 33.1286C75.7417 33.1286 92.5438 29.6514 93.0638 20.9629C93.0638 20.9629 93.704 30.1375 76.9419 34.0185L75.7417 33.1286Z" fill="#30328B"/>
<path d="M102.671 15.8508L103.99 11.0762H125.172L123.087 15.8508H117.297L113.472 30.3861H104.951L108.746 15.866L102.671 15.8508Z" fill="#E94127"/>
<path d="M119.097 30.387L126.178 12.1378C126.178 12.1378 126.598 10.9707 127.648 10.9707H143.745C143.745 10.9707 145.08 11.0467 144.9 12.1833C144.719 13.32 141.374 30.387 141.374 30.387H134.443L135.947 23.582L128.581 23.5972L126.201 30.387H119.097Z" fill="#E94127"/>
<path d="M129.268 16.5945L132.748 16.1705L135.058 13.4414L135.899 16.1705L139.169 16.5945L136.108 18.8072L135.899 21.6869L133.198 20.2325L129.898 21.6869L131.188 18.7464L129.268 16.5945Z" fill="white"/>
<path d="M143.309 30.6395L145.609 18.7979H158.566C158.566 18.7979 159.871 18.489 159.871 17.3675C159.871 16.246 158.641 15.8979 158.641 15.8979H145.844L146.52 10.9714H161.429C161.429 10.9714 163.349 10.8752 164.489 13.0169C164.489 13.0169 165.33 14.0878 165.33 16.7966C165.33 19.5054 164.954 20.9991 163.99 22.2117C163.025 23.4244 161.37 23.6041 161.37 23.6041L162.13 29.1813L172.911 30.7572H156.891C156.891 30.7572 155.97 30.6306 155.97 29.3028C155.97 27.975 155.189 23.5839 155.189 23.5839H150.009L148.569 30.6167L143.309 30.6395Z" fill="#E94127"/>
<path d="M167.088 10.2395C169.827 10.2395 172.048 7.99582 172.048 5.22814C172.048 2.46045 169.827 0.216797 167.088 0.216797C164.348 0.216797 162.127 2.46045 162.127 5.22814C162.127 7.99582 164.348 10.2395 167.088 10.2395Z" fill="#E94127"/>
<path d="M167.088 9.96919C169.68 9.96919 171.781 7.84682 171.781 5.22874C171.781 2.61066 169.68 0.488281 167.088 0.488281C164.496 0.488281 162.395 2.61066 162.395 5.22874C162.395 7.84682 164.496 9.96919 167.088 9.96919Z" fill="white"/>
<path d="M164.908 8.04337V2.31558H167.421C167.811 2.29874 168.201 2.351 168.574 2.47001C168.837 2.57542 169.058 2.76765 169.2 3.01558C169.357 3.27546 169.438 3.57452 169.436 3.87886C169.445 4.26005 169.305 4.62962 169.046 4.9067C168.784 5.18517 168.382 5.36239 167.838 5.43834C168.001 5.5117 168.153 5.60755 168.29 5.72314C168.53 5.94854 168.741 6.20374 168.917 6.48263L169.904 8.0421H168.961L168.209 6.84971C167.99 6.50626 167.81 6.24297 167.668 6.05985C167.563 5.91426 167.436 5.78614 167.292 5.6801C167.187 5.61004 167.071 5.55826 166.949 5.52694C166.811 5.50505 166.671 5.49615 166.531 5.50036H165.662V8.04464L164.908 8.04337ZM165.659 4.8434H167.272C167.544 4.85362 167.816 4.81724 168.076 4.73581C168.257 4.67398 168.412 4.55278 168.517 4.39151C168.616 4.23872 168.668 4.06006 168.668 3.87759C168.671 3.7513 168.646 3.62584 168.596 3.51025C168.545 3.39467 168.47 3.29186 168.376 3.20925C168.182 3.03456 167.874 2.94722 167.454 2.94722H165.659V4.8434Z" fill="#E94127"/>
</g>
<defs>
<clipPath id="clip0">
<rect width="172.058" height="33.7971" fill="white" transform="translate(0.854492 0.216797)"/>
</clipPath>
</defs>
</svg>
