<svg width="447" height="454" viewBox="0 0 447 454" fill="none" xmlns="http://www.w3.org/2000/svg">
<mask id="mask0" mask-type="alpha" maskUnits="userSpaceOnUse" x="185" y="194" width="217" height="217">
<circle cx="293.161" cy="302.206" r="108.058" transform="rotate(36.559 293.161 302.206)" fill="#C4C4C4"/>
</mask>
<g mask="url(#mask0)">
<circle cx="389.421" cy="274.748" r="2.92364" transform="rotate(36.559 389.421 274.748)" fill="#0F6CFA"/>
<circle cx="365.197" cy="307.742" r="2.92364" transform="rotate(36.559 365.197 307.742)" fill="#0F6CFA"/>
<circle cx="340.973" cy="340.736" r="2.92364" transform="rotate(36.559 340.973 340.736)" fill="#0F6CFA"/>
<circle cx="316.749" cy="373.73" r="2.92364" transform="rotate(36.559 316.749 373.73)" fill="#0F6CFA"/>
<circle cx="292.525" cy="406.723" r="2.92364" transform="rotate(36.559 292.525 406.723)" fill="#0F6CFA"/>
<circle cx="401.454" cy="258.193" r="2.92364" transform="rotate(36.559 401.454 258.193)" fill="#0F6CFA"/>
<circle cx="377.229" cy="291.188" r="2.92364" transform="rotate(36.559 377.229 291.188)" fill="#0F6CFA"/>
<circle cx="353.005" cy="324.182" r="2.92364" transform="rotate(36.559 353.005 324.182)" fill="#0F6CFA"/>
<circle cx="328.781" cy="357.174" r="2.92364" transform="rotate(36.559 328.781 357.174)" fill="#0F6CFA"/>
<circle cx="304.558" cy="390.168" r="2.92364" transform="rotate(36.559 304.558 390.168)" fill="#0F6CFA"/>
<circle cx="381.635" cy="319.934" r="2.92364" transform="rotate(36.559 381.635 319.934)" fill="#0F6CFA"/>
<circle cx="357.411" cy="352.926" r="2.92364" transform="rotate(36.559 357.411 352.926)" fill="#0F6CFA"/>
<circle cx="333.188" cy="385.92" r="2.92364" transform="rotate(36.559 333.188 385.92)" fill="#0F6CFA"/>
<circle cx="393.668" cy="303.377" r="2.92364" transform="rotate(36.559 393.668 303.377)" fill="#0F6CFA"/>
<circle cx="369.444" cy="336.371" r="2.92364" transform="rotate(36.559 369.444 336.371)" fill="#0F6CFA"/>
<circle cx="345.22" cy="369.363" r="2.92364" transform="rotate(36.559 345.22 369.363)" fill="#0F6CFA"/>
<circle cx="320.997" cy="402.359" r="2.92364" transform="rotate(36.559 320.997 402.359)" fill="#0F6CFA"/>
<circle cx="398.074" cy="332.123" r="2.92364" transform="rotate(36.559 398.074 332.123)" fill="#0F6CFA"/>
<circle cx="373.85" cy="365.115" r="2.92364" transform="rotate(36.559 373.85 365.115)" fill="#0F6CFA"/>
<circle cx="349.626" cy="398.111" r="2.92364" transform="rotate(36.559 349.626 398.111)" fill="#0F6CFA"/>
<circle cx="385.884" cy="348.562" r="2.92364" transform="rotate(36.559 385.884 348.562)" fill="#0F6CFA"/>
<circle cx="361.659" cy="381.555" r="2.92364" transform="rotate(36.559 361.659 381.555)" fill="#0F6CFA"/>
<circle cx="390.289" cy="377.307" r="2.92364" transform="rotate(36.559 390.289 377.307)" fill="#0F6CFA"/>
<circle cx="366.065" cy="410.301" r="2.92364" transform="rotate(36.559 366.065 410.301)" fill="#0F6CFA"/>
<circle cx="402.322" cy="360.752" r="2.92364" transform="rotate(36.559 402.322 360.752)" fill="#0F6CFA"/>
<circle cx="378.098" cy="393.746" r="2.92364" transform="rotate(36.559 378.098 393.746)" fill="#0F6CFA"/>
<circle cx="394.536" cy="405.936" r="2.92364" transform="rotate(36.559 394.536 405.936)" fill="#0F6CFA"/>
<circle cx="307.227" cy="213.799" r="2.92364" transform="rotate(36.559 307.227 213.799)" fill="#0F6CFA"/>
<circle cx="283.003" cy="246.791" r="2.92364" transform="rotate(36.559 283.003 246.791)" fill="#0F6CFA"/>
<circle cx="258.779" cy="279.785" r="2.92364" transform="rotate(36.559 258.779 279.785)" fill="#0F6CFA"/>
<circle cx="234.555" cy="312.779" r="2.92364" transform="rotate(36.559 234.555 312.779)" fill="#0F6CFA"/>
<circle cx="210.331" cy="345.773" r="2.92364" transform="rotate(36.559 210.331 345.773)" fill="#0F6CFA"/>
<circle cx="186.107" cy="378.766" r="2.92364" transform="rotate(36.559 186.107 378.766)" fill="#0F6CFA"/>
<circle cx="319.26" cy="197.242" r="2.92364" transform="rotate(36.559 319.26 197.242)" fill="#0F6CFA"/>
<circle cx="295.036" cy="230.236" r="2.92364" transform="rotate(36.559 295.036 230.236)" fill="#0F6CFA"/>
<circle cx="270.812" cy="263.229" r="2.92364" transform="rotate(36.559 270.812 263.229)" fill="#0F6CFA"/>
<circle cx="246.588" cy="296.223" r="2.92364" transform="rotate(36.559 246.588 296.223)" fill="#0F6CFA"/>
<circle cx="222.364" cy="329.217" r="2.92364" transform="rotate(36.559 222.364 329.217)" fill="#0F6CFA"/>
<circle cx="198.14" cy="362.211" r="2.92364" transform="rotate(36.559 198.14 362.211)" fill="#0F6CFA"/>
<circle cx="347.89" cy="192.994" r="2.92364" transform="rotate(36.559 347.89 192.994)" fill="#0F6CFA"/>
<circle cx="323.666" cy="225.988" r="2.92364" transform="rotate(36.559 323.666 225.988)" fill="#0F6CFA"/>
<circle cx="299.442" cy="258.98" r="2.92364" transform="rotate(36.559 299.442 258.98)" fill="#0F6CFA"/>
<circle cx="275.218" cy="291.975" r="2.92364" transform="rotate(36.559 275.218 291.975)" fill="#0F6CFA"/>
<circle cx="250.994" cy="324.969" r="2.92364" transform="rotate(36.559 250.994 324.969)" fill="#0F6CFA"/>
<circle cx="226.77" cy="357.963" r="2.92364" transform="rotate(36.559 226.77 357.963)" fill="#0F6CFA"/>
<circle cx="202.546" cy="390.955" r="2.92364" transform="rotate(36.559 202.546 390.955)" fill="#0F6CFA"/>
<circle cx="335.698" cy="209.432" r="2.92364" transform="rotate(36.559 335.698 209.432)" fill="#0F6CFA"/>
<circle cx="311.474" cy="242.426" r="2.92364" transform="rotate(36.559 311.474 242.426)" fill="#0F6CFA"/>
<circle cx="287.25" cy="275.42" r="2.92364" transform="rotate(36.559 287.25 275.42)" fill="#0F6CFA"/>
<circle cx="263.027" cy="308.414" r="2.92364" transform="rotate(36.559 263.027 308.414)" fill="#0F6CFA"/>
<circle cx="238.802" cy="341.406" r="2.92364" transform="rotate(36.559 238.802 341.406)" fill="#0F6CFA"/>
<circle cx="214.579" cy="374.4" r="2.92364" transform="rotate(36.559 214.579 374.4)" fill="#0F6CFA"/>
<circle cx="190.354" cy="407.395" r="2.92364" transform="rotate(36.559 190.354 407.395)" fill="#0F6CFA"/>
<circle cx="364.329" cy="205.184" r="2.92364" transform="rotate(36.559 364.329 205.184)" fill="#0F6CFA"/>
<circle cx="340.104" cy="238.178" r="2.92364" transform="rotate(36.559 340.104 238.178)" fill="#0F6CFA"/>
<circle cx="315.88" cy="271.172" r="2.92364" transform="rotate(36.559 315.88 271.172)" fill="#0F6CFA"/>
<circle cx="291.657" cy="304.166" r="2.92364" transform="rotate(36.559 291.657 304.166)" fill="#0F6CFA"/>
<circle cx="267.433" cy="337.158" r="2.92364" transform="rotate(36.559 267.433 337.158)" fill="#0F6CFA"/>
<circle cx="243.208" cy="370.152" r="2.92364" transform="rotate(36.559 243.208 370.152)" fill="#0F6CFA"/>
<circle cx="218.985" cy="403.146" r="2.92364" transform="rotate(36.559 218.985 403.146)" fill="#0F6CFA"/>
<circle cx="352.137" cy="221.623" r="2.92364" transform="rotate(36.559 352.137 221.623)" fill="#0F6CFA"/>
<circle cx="327.913" cy="254.617" r="2.92364" transform="rotate(36.559 327.913 254.617)" fill="#0F6CFA"/>
<circle cx="303.689" cy="287.609" r="2.92364" transform="rotate(36.559 303.689 287.609)" fill="#0F6CFA"/>
<circle cx="279.466" cy="320.604" r="2.92364" transform="rotate(36.559 279.466 320.604)" fill="#0F6CFA"/>
<circle cx="255.241" cy="353.598" r="2.92364" transform="rotate(36.559 255.241 353.598)" fill="#0F6CFA"/>
<circle cx="231.018" cy="386.592" r="2.92364" transform="rotate(36.559 231.018 386.592)" fill="#0F6CFA"/>
<circle cx="380.767" cy="217.375" r="2.92364" transform="rotate(36.559 380.767 217.375)" fill="#0F6CFA"/>
<circle cx="356.543" cy="250.369" r="2.92364" transform="rotate(36.559 356.543 250.369)" fill="#0F6CFA"/>
<circle cx="332.319" cy="283.363" r="2.92364" transform="rotate(36.559 332.319 283.363)" fill="#0F6CFA"/>
<circle cx="308.095" cy="316.355" r="2.92364" transform="rotate(36.559 308.095 316.355)" fill="#0F6CFA"/>
<circle cx="283.871" cy="349.35" r="2.92364" transform="rotate(36.559 283.871 349.35)" fill="#0F6CFA"/>
<circle cx="259.647" cy="382.344" r="2.92364" transform="rotate(36.559 259.647 382.344)" fill="#0F6CFA"/>
<circle cx="368.576" cy="233.814" r="2.92364" transform="rotate(36.559 368.576 233.814)" fill="#0F6CFA"/>
<circle cx="344.353" cy="266.807" r="2.92364" transform="rotate(36.559 344.353 266.807)" fill="#0F6CFA"/>
<circle cx="320.128" cy="299.801" r="2.92364" transform="rotate(36.559 320.128 299.801)" fill="#0F6CFA"/>
<circle cx="295.904" cy="332.793" r="2.92364" transform="rotate(36.559 295.904 332.793)" fill="#0F6CFA"/>
<circle cx="271.68" cy="365.787" r="2.92364" transform="rotate(36.559 271.68 365.787)" fill="#0F6CFA"/>
<circle cx="247.456" cy="398.781" r="2.92364" transform="rotate(36.559 247.456 398.781)" fill="#0F6CFA"/>
<circle cx="397.206" cy="229.566" r="2.92364" transform="rotate(36.559 397.206 229.566)" fill="#0F6CFA"/>
<circle cx="372.981" cy="262.559" r="2.92364" transform="rotate(36.559 372.981 262.559)" fill="#0F6CFA"/>
<circle cx="348.758" cy="295.553" r="2.92364" transform="rotate(36.559 348.758 295.553)" fill="#0F6CFA"/>
<circle cx="324.534" cy="328.545" r="2.92364" transform="rotate(36.559 324.534 328.545)" fill="#0F6CFA"/>
<circle cx="300.31" cy="361.539" r="2.92364" transform="rotate(36.559 300.31 361.539)" fill="#0F6CFA"/>
<circle cx="276.086" cy="394.533" r="2.92364" transform="rotate(36.559 276.086 394.533)" fill="#0F6CFA"/>
<circle cx="385.015" cy="246.004" r="2.92364" transform="rotate(36.559 385.015 246.004)" fill="#0F6CFA"/>
<circle cx="360.791" cy="278.996" r="2.92364" transform="rotate(36.559 360.791 278.996)" fill="#0F6CFA"/>
<circle cx="336.567" cy="311.99" r="2.92364" transform="rotate(36.559 336.567 311.99)" fill="#0F6CFA"/>
<circle cx="312.343" cy="344.984" r="2.92364" transform="rotate(36.559 312.343 344.984)" fill="#0F6CFA"/>
<circle cx="288.118" cy="377.977" r="2.92364" transform="rotate(36.559 288.118 377.977)" fill="#0F6CFA"/>
<circle cx="263.895" cy="410.971" r="2.92364" transform="rotate(36.559 263.895 410.971)" fill="#0F6CFA"/>
<circle cx="188.618" cy="202.279" r="2.92364" transform="rotate(36.559 188.618 202.279)" fill="#0F6CFA"/>
<circle cx="217.248" cy="198.031" r="2.92364" transform="rotate(36.559 217.248 198.031)" fill="#0F6CFA"/>
<circle cx="193.024" cy="231.023" r="2.92364" transform="rotate(36.559 193.024 231.023)" fill="#0F6CFA"/>
<circle cx="205.057" cy="214.469" r="2.92364" transform="rotate(36.559 205.057 214.469)" fill="#0F6CFA"/>
<circle cx="233.687" cy="210.221" r="2.92364" transform="rotate(36.559 233.687 210.221)" fill="#0F6CFA"/>
<circle cx="209.463" cy="243.215" r="2.92364" transform="rotate(36.559 209.463 243.215)" fill="#0F6CFA"/>
<circle cx="185.239" cy="276.207" r="2.92364" transform="rotate(36.559 185.239 276.207)" fill="#0F6CFA"/>
<circle cx="245.719" cy="193.666" r="2.92364" transform="rotate(36.559 245.719 193.666)" fill="#0F6CFA"/>
<circle cx="221.496" cy="226.658" r="2.92364" transform="rotate(36.559 221.496 226.658)" fill="#0F6CFA"/>
<circle cx="197.271" cy="259.652" r="2.92364" transform="rotate(36.559 197.271 259.652)" fill="#0F6CFA"/>
<circle cx="250.126" cy="222.41" r="2.92364" transform="rotate(36.559 250.126 222.41)" fill="#0F6CFA"/>
<circle cx="225.902" cy="255.404" r="2.92364" transform="rotate(36.559 225.902 255.404)" fill="#0F6CFA"/>
<circle cx="201.678" cy="288.398" r="2.92364" transform="rotate(36.559 201.678 288.398)" fill="#0F6CFA"/>
<circle cx="262.158" cy="205.855" r="2.92364" transform="rotate(36.559 262.158 205.855)" fill="#0F6CFA"/>
<circle cx="237.935" cy="238.85" r="2.92364" transform="rotate(36.559 237.935 238.85)" fill="#0F6CFA"/>
<circle cx="213.71" cy="271.842" r="2.92364" transform="rotate(36.559 213.71 271.842)" fill="#0F6CFA"/>
<circle cx="189.486" cy="304.836" r="2.92364" transform="rotate(36.559 189.486 304.836)" fill="#0F6CFA"/>
<circle cx="290.788" cy="201.607" r="2.92364" transform="rotate(36.559 290.788 201.607)" fill="#0F6CFA"/>
<circle cx="266.564" cy="234.602" r="2.92364" transform="rotate(36.559 266.564 234.602)" fill="#0F6CFA"/>
<circle cx="242.34" cy="267.594" r="2.92364" transform="rotate(36.559 242.34 267.594)" fill="#0F6CFA"/>
<circle cx="218.116" cy="300.588" r="2.92364" transform="rotate(36.559 218.116 300.588)" fill="#0F6CFA"/>
<circle cx="193.892" cy="333.582" r="2.92364" transform="rotate(36.559 193.892 333.582)" fill="#0F6CFA"/>
<circle cx="278.597" cy="218.045" r="2.92364" transform="rotate(36.559 278.597 218.045)" fill="#0F6CFA"/>
<circle cx="254.373" cy="251.039" r="2.92364" transform="rotate(36.559 254.373 251.039)" fill="#0F6CFA"/>
<circle cx="230.149" cy="284.033" r="2.92364" transform="rotate(36.559 230.149 284.033)" fill="#0F6CFA"/>
<circle cx="205.925" cy="317.025" r="2.92364" transform="rotate(36.559 205.925 317.025)" fill="#0F6CFA"/>
<circle cx="181.701" cy="350.02" r="2.92364" transform="rotate(36.559 181.701 350.02)" fill="#0F6CFA"/>
</g>
<circle cx="295.828" cy="151.172" r="108.065" transform="rotate(36.559 295.828 151.172)" fill="#0F6CFA"/>
<path fill-rule="evenodd" clip-rule="evenodd" d="M373.031 228.299C335.765 265.345 276.022 270.613 232.526 238.359C228.139 235.106 224.07 231.584 220.324 227.833C257.59 190.787 317.333 185.519 360.829 217.773C365.216 221.026 369.285 224.548 373.031 228.299Z" fill="#191D25"/>
<path d="M0 236C0 338.173 82.8273 421 185 421V51C82.8273 51 0 133.827 0 236Z" fill="#B8D5EA"/>
</svg>
