<svg width="85" height="23" viewBox="0 0 85 23" fill="none" xmlns="http://www.w3.org/2000/svg">
<path d="M0.52 22V0.999999H16.36V5.11H5.11V9.37H15.01V13.48H5.11V17.89H16.51V22H0.52ZM28.0877 0.64C30.3277 0.64 32.1477 1.17 33.5477 2.23C34.9677 3.29 35.6777 4.64 35.6777 6.28C35.6777 8.52 34.5477 10.13 32.2877 11.11C34.9077 11.95 36.2177 13.6 36.2177 16.06C36.2177 17.9 35.4877 19.41 34.0277 20.59C32.5877 21.77 30.6577 22.36 28.2377 22.36C26.0977 22.36 24.2977 22.07 22.8377 21.49C21.3977 20.91 20.0877 20.03 18.9077 18.85L21.3677 15.64C23.1877 17.42 25.4177 18.31 28.0577 18.31C29.0777 18.31 29.9177 18.09 30.5777 17.65C31.2577 17.19 31.5977 16.57 31.5977 15.79C31.5977 14.95 31.2177 14.33 30.4577 13.93C29.7177 13.53 28.7077 13.33 27.4277 13.33H24.9977V9.49H27.3677C29.8677 9.49 31.1177 8.68 31.1177 7.06C31.1177 6.34 30.8077 5.77 30.1877 5.35C29.5677 4.93 28.7477 4.72 27.7277 4.72C25.4477 4.72 23.5577 5.49 22.0577 7.03L19.6277 4.09C21.8277 1.79 24.6477 0.64 28.0877 0.64ZM38.4466 22L47.4466 0.849999H51.7066L60.7066 22H55.8766L53.9566 17.29H45.0766L43.1566 22H38.4466ZM46.7266 13.21H52.3066L49.5166 6.4L46.7266 13.21ZM63.9477 22V0.999999H68.9277L74.4477 9.88L79.9677 0.999999H84.9477V22H80.3577V8.29L74.4477 17.26H74.3277L68.4777 8.38V22H63.9477Z" fill="#0F6CFA"/>
</svg>
