<svg width="173" height="35" fill="none" xmlns="http://www.w3.org/2000/svg"><g clip-path="url(#clip0)"><path d="M.854 30.416l7.921-1.743L6.99 12.031s-.045-1.197 1.05-1.197h7.186l-4.636 17.43 1.216-.302s.285-.046.48-.796c.194-.751 5.032-16.19 5.032-16.19h8.754L20.98 28.558s-.54 1.864-2.415 1.864l-17.71-.006zM23.461 27.9l3.848-15.255s.322-1.553 1.552-1.553h15.811s1.98.152 1.56 2.06c-.421 1.91-3.93 15.87-3.93 15.87s-.21 1.392-1.68 1.392H25.037s-2.026.094-1.576-2.514z" fill="#30318B"/><path d="M30.872 24.702l2.17-8.093s.344-.94.99-.985c.645-.046 4.246 0 4.246 0s.645.182.45 1c-.196.818-2.13 8.184-2.13 8.184s-.315 1.076-1.11 1.076h-4.016s-.826-.19-.6-1.106" fill="#FFFFFE"/><path d="M51.162 22.242l7.88-11.196h6.766l-4.92 6.709.56 12.63-6.515-.08.02-4.487-3.369 4.599h-6.408s-1.538-.127-1.148-1.88c.39-1.753 3.795-16.202 3.795-16.202s.226-1.358 1.757-1.358h4.98l-3.398 11.265zm11.011 8.038l4.958-19.188h7.382L69.47 30.28h-7.298z" fill="#30318B"/><path d="M77.092 7.349s8.461-.423 12.212 2.243c0 0-8.34 2.025-8.645 4.98 0 0-.376 1.375 2.536 2.87s4.606 2.426 4.626 4.507c.02 2.08-1.82 4.386-3.44 5.556-1.62 1.171-4.338 3.236-13.42 3.092l6.131-23.248z" fill="#E94127"/><path d="M103.675 7.322s-7.23-.429-16.171 3.907c0 0-4.886 2.334-2.34 3.688 2.545 1.354 9.06 2.738 9.24 7.528 0 0 .45 3.291-6.3 8.162h2.3s3.681-2.35 5.52-6.272c0 0 2.757-4.95-4.2-8.084 0 0 5.24.869 5.42 5.557 0 0 .59 3.015-4.84 8.798h5.4l5.971-23.137" fill="#30328B"/><path d="M75.742 33.129s16.802-3.478 17.322-12.166c0 0 .64 9.174-16.122 13.056l-1.2-.89z" fill="#30328B"/><path d="M102.671 15.85l1.319-4.774h21.182l-2.085 4.775h-5.79l-3.825 14.535h-8.521l3.795-14.52-6.075-.015zm16.426 14.537l7.081-18.25s.42-1.166 1.47-1.166h16.097s1.335.076 1.155 1.212c-.181 1.137-3.526 18.204-3.526 18.204h-6.931l1.504-6.805-7.366.015-2.38 6.79h-7.104z" fill="#E94127"/><path d="M129.268 16.595l3.48-.424 2.31-2.73.841 2.73 3.27.424-3.061 2.212-.209 2.88-2.701-1.454-3.3 1.454 1.29-2.94-1.92-2.152z" fill="#fff"/><path d="M143.309 30.64l2.3-11.842h12.957s1.305-.309 1.305-1.43c0-1.122-1.23-1.47-1.23-1.47h-12.797l.676-4.927h14.909s1.92-.096 3.06 2.046c0 0 .841 1.07.841 3.78 0 2.708-.376 4.202-1.34 5.415-.965 1.212-2.62 1.392-2.62 1.392l.76 5.577 10.781 1.576h-16.02s-.921-.126-.921-1.454c0-1.328-.781-5.72-.781-5.72h-5.18l-1.44 7.034-5.26.023zm23.779-20.4c2.739 0 4.96-2.244 4.96-5.012 0-2.768-2.221-5.011-4.96-5.011-2.74 0-4.961 2.243-4.961 5.011 0 2.768 2.221 5.011 4.961 5.011z" fill="#E94127"/><path d="M167.088 9.97c2.592 0 4.693-2.123 4.693-4.741 0-2.618-2.101-4.74-4.693-4.74-2.592 0-4.693 2.122-4.693 4.74 0 2.618 2.101 4.74 4.693 4.74z" fill="#fff"/><path d="M164.908 8.043V2.316h2.513c.39-.017.78.035 1.153.154.263.105.484.298.626.546.157.26.238.559.236.863.009.381-.131.75-.39 1.028-.262.278-.664.455-1.208.531.163.074.315.17.452.285.24.226.451.48.627.76l.987 1.56h-.943l-.752-1.193a11.076 11.076 0 00-.541-.79 1.724 1.724 0 00-.376-.38 1.12 1.12 0 00-.343-.153 2.239 2.239 0 00-.418-.027h-.869v2.545l-.754-.002zm.751-3.2h1.613c.272.01.544-.026.804-.107a.857.857 0 00.441-.344.945.945 0 00.151-.514.874.874 0 00-.292-.669c-.194-.174-.502-.262-.922-.262h-1.795v1.896z" fill="#E94127"/></g><defs><clipPath id="clip0"><path fill="#fff" transform="translate(.854 .217)" d="M0 0h172.058v33.797H0z"/></clipPath></defs></svg>