<svg width="54" height="53" viewBox="0 0 54 53" fill="none" xmlns="http://www.w3.org/2000/svg">
<path d="M45.871 41.1115C48.5631 37.0825 50 32.3456 50 27.5H25.5V3C20.6544 3 15.9175 4.4369 11.8885 7.12899C7.85953 9.82109 4.7193 13.6475 2.86495 18.1243C1.0106 22.601 0.525423 27.5272 1.47076 32.2797C2.4161 37.0322 4.7495 41.3977 8.17588 44.8241C11.6023 48.2505 15.9678 50.5839 20.7203 51.5292C25.4728 52.4746 30.399 51.9894 34.8757 50.135C39.3525 48.2807 43.1789 45.1405 45.871 41.1115Z" stroke="#0F6CFA" stroke-linecap="round" stroke-dasharray="2 5 2 5"/>
<path d="M37.7248 34.0002C39.2082 31.7801 40 29.17 40 26.5H26.5V13C23.83 13 21.2199 13.7918 18.9998 15.2752C16.7797 16.7586 15.0494 18.867 14.0276 21.3338C13.0058 23.8006 12.7385 26.515 13.2594 29.1337C13.7803 31.7525 15.066 34.1579 16.9541 36.0459C18.8421 37.9339 21.2475 39.2197 23.8663 39.7406C26.485 40.2615 29.1994 39.9942 31.6662 38.9724C34.133 37.9506 36.2414 36.2203 37.7248 34.0002Z" fill="#0F6CFA"/>
<path d="M54 22.5C54 19.5453 53.418 16.6194 52.2873 13.8896C51.1566 11.1598 49.4992 8.67942 47.4099 6.5901C45.3206 4.50078 42.8402 2.84344 40.1104 1.71271C37.3806 0.581979 34.4547 -1.29156e-07 31.5 0L31.5 22.5H54Z" fill="#191D25"/>
</svg>
