<svg width="57" height="55" viewBox="0 0 57 55" fill="none" xmlns="http://www.w3.org/2000/svg">
<rect x="25" y="3" width="20" height="20" rx="10" transform="rotate(90 25 3)" stroke="#0F6CFA" stroke-linecap="round" stroke-dasharray="2 5 2 5"/>
<path d="M29.5 55C33.1113 55 36.6873 54.2887 40.0238 52.9067C43.3602 51.5247 46.3918 49.499 48.9454 46.9454C51.499 44.3918 53.5247 41.3602 54.9067 38.0238C56.2887 34.6873 57 31.1114 57 27.5C57 23.8886 56.2887 20.3127 54.9067 16.9762C53.5247 13.6398 51.499 10.6082 48.9454 8.05456C46.3918 5.50095 43.3602 3.47532 40.0238 2.09331C36.6873 0.711307 33.1113 -1.35992e-06 29.5 -1.20206e-06L29.5 27.5L29.5 55Z" fill="#0F6CFA"/>
<path d="M2.40413e-06 27.5C2.08841e-06 31.1113 0.711309 34.6873 2.09331 38.0238C3.47532 41.3602 5.50095 44.3918 8.05457 46.9454C10.6082 49.499 13.6398 51.5247 16.9762 52.9067C20.3127 54.2887 23.8886 55 27.5 55L27.5 27.5L2.40413e-06 27.5Z" fill="#191D25"/>
</svg>
